<?xml version="1.0" standalone="no"?>
<!DOCTYPE svg PUBLIC "-//W3C//DTD SVG 20010904//EN"
 "http://www.w3.org/TR/2001/REC-SVG-20010904/DTD/svg10.dtd">
<svg version="1.0" xmlns="http://www.w3.org/2000/svg"
 width="840.000000pt" height="840.000000pt" viewBox="0 0 840.000000 840.000000"
 preserveAspectRatio="xMidYMid meet">
<metadata>
Created by potrace 1.11, written by Peter Selinger 2001-2013
</metadata>
<g transform="translate(0.000000,840.000000) scale(0.100000,-0.100000)"
fill="#000000" stroke="none">
<path d="M1101 5619 c-24 -5 -46 -11 -50 -14 -7 -8 78 6 104 16 26 10 3 9 -54
-2z"/>
<path d="M1188 5623 c7 -3 16 -2 19 1 4 3 -2 6 -13 5 -11 0 -14 -3 -6 -6z"/>
<path d="M1509 5619 c-285 -14 -464 -46 -574 -103 -80 -41 -202 -163 -248
-246 -34 -63 -69 -166 -82 -243 -4 -23 -10 -35 -17 -31 -6 4 -8 -1 -3 -15 6
-20 3 -21 -57 -21 -35 0 -68 -4 -74 -8 -7 -4 -14 -23 -15 -42 l-4 -35 85 2
c47 2 80 -1 74 -5 -8 -5 -9 -22 -3 -57 5 -27 11 -71 14 -97 62 -529 199 -977
358 -1169 109 -131 271 -234 437 -277 82 -21 157 -35 293 -53 48 -6 87 -14 87
-18 0 -4 6 -9 13 -10 33 -7 301 -12 315 -6 9 4 40 8 67 10 179 12 509 78 660
132 107 38 179 86 281 188 330 329 609 905 603 1245 l-2 65 -8 -63 c-14 -110
-24 -121 -83 -97 -75 31 -132 -15 -107 -86 6 -17 8 -36 4 -43 -5 -7 -2 -7 8 1
9 8 20 9 29 3 13 -8 12 -10 -2 -10 -10 0 -18 -7 -18 -15 0 -9 8 -14 21 -12 14
1 23 -4 25 -16 3 -24 10 -31 23 -22 14 8 14 45 1 45 -5 0 -10 5 -10 10 0 7 6
7 20 0 24 -13 25 -27 4 -69 -16 -31 -17 -32 -36 -15 -16 15 -21 16 -28 5 -6
-11 -9 -10 -13 5 -4 16 -5 17 -6 2 0 -10 -7 -18 -13 -18 -7 0 -23 -3 -35 -6
-18 -5 -23 -2 -23 14 0 32 11 53 24 45 7 -4 7 -1 -1 9 -7 8 -10 18 -6 21 3 4
12 -1 20 -11 13 -16 13 -15 4 3 -5 12 -9 27 -9 35 3 48 -4 79 -18 84 -13 5
-14 1 -9 -24 6 -29 -8 -43 -18 -17 -3 6 -6 -1 -6 -18 -1 -23 2 -26 9 -15 10
16 10 16 14 -32 1 -15 -29 -19 -65 -6 -20 7 -33 7 -42 0 -7 -6 -32 -10 -57
-10 -42 0 -45 1 -46 27 -1 26 10 31 59 22 9 -1 5 -24 -7 -33 -5 -3 3 -5 17 -5
15 1 27 7 27 14 0 7 -7 10 -15 7 -11 -5 -13 -2 -9 9 3 9 14 15 25 14 11 -1 17
-7 15 -14 -10 -25 4 -12 20 19 12 22 13 33 5 36 -6 2 -9 7 -7 11 3 4 -10 7
-27 8 -30 1 -30 1 -7 -7 l25 -8 -27 -1 c-16 -1 -28 4 -28 9 0 6 -7 10 -16 10
-8 0 -12 -4 -9 -10 3 -5 -3 -10 -14 -10 -11 0 -23 5 -26 10 -5 8 -11 7 -21 -1
-10 -8 -14 -8 -14 0 0 6 -5 11 -11 11 -5 0 -7 -5 -4 -10 6 -10 -57 -6 -75 5
-6 3 -10 1 -10 -4 0 -6 -7 -11 -15 -11 -8 0 -15 6 -15 13 0 8 -3 9 -8 1 -7
-11 -41 -15 -40 -5 2 25 -5 73 -9 61 -8 -19 -25 -30 -36 -23 -4 3 0 15 10 26
14 17 14 19 1 9 -9 -7 -29 -15 -44 -18 -16 -3 -32 -11 -36 -17 -5 -9 -8 -8 -8
3 0 13 -2 13 -9 1 -11 -17 -45 -6 -35 11 4 7 -2 5 -13 -4 -26 -23 -45 -23 -61
2 -10 17 -10 20 3 20 8 0 15 -7 15 -15 0 -13 4 -12 22 4 11 11 26 17 32 14 6
-4 5 1 -3 10 -11 15 -11 17 2 17 21 0 42 -27 25 -32 -7 -3 -3 -7 9 -10 17 -5
20 -1 19 18 -1 19 -8 25 -33 30 -21 4 -30 10 -26 18 4 6 -1 4 -11 -4 -17 -13
-18 -12 -14 5 2 14 10 19 26 17 12 -2 22 2 22 8 0 7 -7 10 -15 6 -16 -6 -21 9
-6 18 13 8 1 48 -20 69 -21 20 -26 35 -6 19 17 -14 31 -3 35 27 1 17 -2 22
-13 17 -8 -3 -15 -1 -15 4 0 13 32 15 163 12 104 -3 118 -5 116 -20 -4 -42 2
-58 21 -58 19 0 19 0 -1 19 -11 10 -16 23 -13 29 4 7 10 5 16 -6 12 -21 30
-21 26 2 -2 9 -10 17 -18 17 -8 0 -16 10 -18 23 -3 16 2 22 16 22 11 0 22 -7
26 -15 4 -11 22 -15 71 -15 51 0 65 3 65 15 0 15 46 18 303 20 64 0 77 3 77
16 0 23 -21 79 -29 79 -4 0 -8 14 -8 31 0 17 -4 34 -10 37 -6 4 -13 17 -17 30
-4 12 -12 22 -17 22 -5 0 -9 6 -9 14 0 8 -7 16 -15 20 -8 3 -15 12 -15 20 0
40 -159 157 -262 193 -119 41 -485 116 -688 142 -428 55 -755 69 -1131 50z
m-307 -229 c-1 -14 -7 -29 -13 -35 -8 -7 -9 -3 -4 13 4 14 1 29 -6 39 -11 13
-11 15 6 11 14 -3 19 -11 17 -28z m-40 -77 c-3 -21 0 -33 7 -33 6 0 11 10 11
22 0 17 3 19 11 11 15 -15 -7 -73 -28 -73 -8 0 -11 4 -8 10 3 5 2 25 -3 43 -5
18 -7 48 -4 67 5 33 6 33 12 10 4 -14 5 -40 2 -57z m-142 18 c5 -11 10 -26 9
-33 0 -7 -5 -3 -11 10 -7 14 -20 22 -36 22 -19 0 -22 -3 -14 -13 6 -7 9 -22 6
-34 -3 -11 -1 -24 6 -28 8 -5 8 -10 0 -20 -8 -10 -2 -18 27 -35 38 -23 32 -41
-6 -21 -16 9 -22 8 -30 -6 -9 -16 -10 -16 -11 4 0 12 -5 25 -10 28 -8 5 -8 11
-1 19 10 12 9 71 -1 82 -3 2 -16 -5 -31 -16 -29 -23 -37 -25 -37 -7 0 7 10 19
23 26 72 46 101 51 117 22z m300 5 c0 -13 -25 -26 -61 -31 -9 -1 -21 -5 -28
-9 -13 -8 -14 3 -3 22 5 7 16 10 24 7 9 -4 18 0 21 9 8 20 47 21 47 2z m-190
-66 c0 -5 -4 -10 -10 -10 -5 0 -10 5 -10 10 0 6 5 10 10 10 6 0 10 -4 10 -10z
m-40 -31 c0 -11 -4 -17 -10 -14 -5 3 -25 2 -45 -4 -33 -9 -34 -8 -24 11 6 11
17 17 24 14 8 -3 17 -1 20 4 11 18 35 10 35 -11z m4 -44 c-4 -8 -8 -15 -10
-15 -2 0 -4 7 -4 15 0 8 4 15 10 15 5 0 7 -7 4 -15z m1714 -242 c-21 -2 -55
-2 -75 0 -21 2 -4 4 37 4 41 0 58 -2 38 -4z m-315 -30 c-7 -2 -21 -2 -30 0
-10 3 -4 5 12 5 17 0 24 -2 18 -5z m54 1 c-3 -3 -12 -4 -19 -1 -8 3 -5 6 6 6
11 1 17 -2 13 -5z m66 -1 c-7 -2 -19 -2 -25 0 -7 3 -2 5 12 5 14 0 19 -2 13
-5z m88 -25 c6 -15 15 -25 19 -23 5 3 12 0 16 -6 4 -7 3 -9 -2 -6 -6 3 -16 2
-24 -4 -11 -6 -12 -9 -2 -9 7 0 11 -4 7 -9 -3 -5 -1 -12 4 -15 5 -3 11 2 13
12 3 10 14 18 26 19 18 1 20 -1 10 -17 -7 -10 -16 -16 -21 -13 -5 3 -7 0 -5
-8 3 -8 11 -13 18 -11 6 1 14 -7 17 -19 4 -14 8 -17 13 -9 4 7 13 11 19 9 8
-3 7 -10 -3 -24 -14 -19 -15 -19 -33 -2 -22 19 -33 22 -33 6 0 -5 4 -8 9 -4
13 8 29 -24 24 -46 -6 -22 0 -23 28 -8 11 5 17 14 14 20 -4 5 1 9 9 9 10 0 13
-6 10 -15 -4 -9 0 -15 8 -15 8 0 15 -7 15 -15 0 -8 -6 -15 -14 -15 -7 0 -13 5
-13 10 0 17 -25 11 -38 -10 -7 -11 -9 -19 -5 -18 5 2 10 -1 13 -7 3 -5 -7 -10
-22 -12 -26 -2 -44 19 -32 38 3 5 0 9 -5 9 -10 0 -15 -14 -12 -32 0 -4 -6 -5
-14 -2 -8 4 -15 2 -15 -3 0 -6 -13 -10 -29 -11 -22 0 -28 3 -24 14 4 12 0 13
-21 4 -14 -5 -26 -6 -26 -1 0 4 -7 8 -15 8 -10 0 -12 -4 -5 -12 7 -8 5 -12 -4
-12 -9 0 -14 11 -14 29 1 23 4 26 15 16 9 -7 17 -8 21 -2 4 5 15 10 25 10 14
2 15 -1 6 -12 -10 -12 -9 -13 5 -8 9 3 16 10 16 14 0 5 11 7 24 6 17 -2 23 1
19 10 -3 8 -10 11 -15 7 -7 -4 -9 4 -6 21 3 14 1 26 -3 26 -5 0 -9 8 -10 18 0
10 -3 12 -6 4 -2 -6 -9 -10 -14 -6 -16 9 -10 22 9 19 9 -2 21 -4 25 -4 5 -1 5
-6 2 -12 -4 -6 2 -5 13 2 26 16 22 20 -19 25 -35 4 -53 14 -26 14 21 0 22 19
2 27 -11 4 -15 17 -14 42 2 32 5 36 31 36 21 0 30 -7 39 -27z m89 9 c0 -5 -7
-7 -15 -3 -8 3 -15 1 -15 -4 0 -6 5 -10 10 -10 6 0 10 -4 10 -10 0 -5 -7 -6
-17 -3 -12 5 -14 3 -8 -7 5 -9 4 -11 -4 -6 -6 4 -9 16 -6 27 7 22 -20 28 -28
7 -3 -8 -6 -6 -6 5 -1 15 6 17 39 15 22 -1 40 -6 40 -11z m69 -4 c7 -7 10 -13
9 -14 -23 -6 -36 -3 -49 12 -16 16 -15 17 6 15 12 0 28 -7 34 -13z m-19 -54
c0 -7 -9 -4 -21 7 -22 19 -22 19 -10 -3 6 -13 16 -23 22 -23 6 0 3 -7 -6 -17
-13 -13 -18 -14 -25 -3 -4 7 -13 9 -19 6 -15 -10 -14 1 6 46 16 37 17 37 35
18 10 -10 18 -25 18 -31z m12 -80 c5 -3 0 -9 -12 -12 -16 -4 -20 -2 -16 10 3
8 6 20 7 26 0 7 3 5 6 -3 3 -8 10 -18 15 -21z m-197 -27 c-3 -8 0 -22 7 -31
11 -14 11 -14 -3 -4 -9 7 -18 11 -20 8 -3 -2 -6 6 -7 19 -1 14 4 23 14 23 9 0
13 -6 9 -15z m152 -7 c0 -8 -4 -15 -9 -15 -10 0 -11 14 -1 23 9 10 10 9 10 -8z
m170 -91 c-3 -3 -12 -4 -19 -1 -8 3 -5 6 6 6 11 1 17 -2 13 -5z m713 -4 c0 -5
-2 -10 -4 -10 -3 0 -8 5 -11 10 -3 6 -1 10 4 10 6 0 11 -4 11 -10z m-50 -51
c0 -13 -34 -11 -48 3 -21 21 -13 27 18 17 17 -6 30 -15 30 -20z m-80 -254 c0
-8 -2 -15 -4 -15 -2 0 -6 7 -10 15 -3 8 -1 15 4 15 6 0 10 -7 10 -15z m-10
-99 c0 -3 -4 -8 -10 -11 -5 -3 -10 -1 -10 4 0 6 5 11 10 11 6 0 10 -2 10 -4z
m-25 -46 c3 -5 1 -10 -4 -10 -6 0 -11 5 -11 10 0 6 2 10 4 10 3 0 8 -4 11 -10z
m-255 -474 c0 -5 -7 -3 -15 4 -8 7 -12 17 -9 22 7 10 24 -9 24 -26z m-54 -21
c-20 -31 -4 -33 17 -2 9 12 16 17 16 11 1 -6 -6 -17 -14 -24 -8 -7 -15 -17
-15 -22 0 -5 -11 -21 -25 -36 -14 -15 -40 -46 -58 -69 -18 -23 -35 -43 -38
-43 -3 0 -24 -17 -46 -37 -74 -68 -206 -123 -333 -139 -53 -6 -54 -6 -38 11
15 16 19 16 34 4 16 -12 17 -12 11 4 -5 13 -1 17 18 17 14 0 25 5 25 11 0 21
74 74 90 64 6 -4 13 0 15 8 4 9 16 12 35 9 23 -3 30 0 30 12 0 8 12 24 27 33
15 10 36 26 46 36 10 10 25 16 33 13 8 -3 14 1 14 9 0 9 10 15 23 16 20 0 20
1 3 8 -15 6 -17 9 -6 16 9 5 19 1 31 -14 10 -12 20 -17 24 -11 3 5 1 10 -4 10
-16 0 -13 19 5 37 13 14 17 14 24 2 5 -7 12 -10 16 -6 4 3 1 13 -6 22 -10 12
-10 15 0 15 8 0 11 3 7 6 -5 6 40 54 51 54 2 0 -3 -11 -12 -25z"/>
<path d="M2670 4889 c0 -6 -6 -9 -13 -6 -8 3 -14 -1 -14 -9 0 -7 4 -11 8 -8 4
2 9 -1 11 -8 4 -10 8 -9 20 2 13 13 13 18 1 28 -9 9 -13 9 -13 1z"/>
<path d="M2690 4826 c0 -9 5 -16 10 -16 6 0 10 4 10 9 0 6 -4 13 -10 16 -5 3
-10 -1 -10 -9z"/>
<path d="M2710 4751 c0 -6 -7 -11 -15 -11 -12 0 -11 -5 3 -29 11 -20 19 -26
24 -18 4 7 1 17 -8 24 -11 8 -12 13 -3 18 6 4 14 4 18 -1 10 -14 33 -16 29 -2
-3 7 -9 13 -14 13 -5 0 -15 4 -21 8 -8 5 -13 4 -13 -2z"/>
<path d="M2687 4673 c-4 -3 -7 -11 -7 -17 0 -6 5 -5 12 2 6 6 9 14 7 17 -3 3
-9 2 -12 -2z"/>
<path d="M2755 4660 c3 -5 8 -10 11 -10 2 0 4 5 4 10 0 6 -5 10 -11 10 -5 0
-7 -4 -4 -10z"/>
<path d="M7038 5603 c7 -3 16 -2 19 1 4 3 -2 6 -13 5 -11 0 -14 -3 -6 -6z"/>
<path d="M6021 5574 c-277 -23 -651 -81 -806 -125 -209 -59 -323 -132 -412
-264 -69 -104 -93 -198 -93 -371 0 -206 66 -454 199 -747 48 -106 187 -336
246 -406 76 -91 75 -90 110 -86 29 4 33 2 28 -12 -4 -9 -2 -14 3 -10 5 3 19
-8 29 -24 11 -16 28 -29 38 -29 19 0 21 -8 9 -28 -6 -9 -23 1 -62 38 -29 28
-55 49 -57 47 -8 -8 137 -149 187 -181 149 -96 446 -160 835 -181 198 -11 602
27 745 70 182 55 343 172 447 325 136 200 280 679 329 1093 3 31 10 57 15 57
4 0 9 17 11 38 l3 37 83 9 c77 9 82 11 82 33 0 55 -13 63 -97 56 -67 -5 -75
-4 -70 10 3 9 2 17 -2 19 -4 2 -15 41 -24 88 -25 129 -91 256 -181 345 -139
136 -273 175 -704 205 -209 14 -691 11 -891 -6z m-1229 -512 c-6 -2 -12 -13
-12 -25 1 -22 1 -22 20 2 l20 23 0 -31 c0 -19 -4 -30 -10 -26 -11 7 -34 -13
-37 -31 -3 -16 50 -11 54 6 4 13 3 13 -6 0 -6 -8 -11 -10 -11 -4 0 6 7 17 15
24 10 8 14 24 11 41 -2 15 -1 31 2 34 4 4 7 12 7 18 0 24 30 12 32 -13 4 -56
9 -65 36 -62 31 4 43 -13 23 -33 -17 -18 -30 -20 -20 -3 4 7 3 8 -5 4 -6 -4
-9 -11 -6 -16 3 -5 1 -11 -5 -15 -9 -5 -14 7 -11 27 2 16 -27 -5 -32 -23 -3
-10 -2 -17 3 -14 13 8 20 -21 8 -33 -8 -8 -6 -13 8 -19 10 -4 28 -15 39 -26
19 -17 19 -19 3 -31 -10 -7 -18 -16 -18 -20 0 -26 -57 -51 -78 -34 -11 9 -14
9 -9 1 4 -6 3 -14 -3 -18 -5 -3 -10 0 -10 7 0 7 -16 31 -35 52 -30 34 -35 47
-35 88 0 27 4 47 9 44 5 -4 7 3 4 13 -3 10 5 47 18 82 21 57 24 60 33 39 8
-17 7 -25 -2 -28z m196 -91 c3 -9 0 -11 -7 -6 -8 4 -14 -1 -18 -13 -3 -13 -11
-18 -19 -15 -8 3 -14 0 -14 -6 0 -6 6 -10 13 -8 7 1 12 -8 11 -20 0 -13 3 -23
8 -23 4 0 8 -6 8 -14 0 -9 7 -12 20 -9 19 5 19 7 5 23 -8 9 -12 20 -8 25 5 4
2 5 -6 0 -9 -5 -12 -4 -7 3 11 18 22 14 34 -13 16 -34 15 -45 -2 -45 -23 0
-27 -15 -10 -38 18 -27 40 -19 53 19 13 37 6 37 -14 2 -16 -27 -16 -27 -10 -3
4 14 7 30 7 37 1 7 5 10 10 7 4 -3 8 2 8 11 0 9 -4 14 -9 11 -4 -3 -16 3 -26
14 -10 11 -24 20 -32 20 -18 0 -16 17 3 24 21 8 34 -1 34 -24 0 -10 10 -20 23
-24 13 -3 29 -17 35 -31 10 -21 10 -25 0 -19 -9 5 -10 4 -3 -4 6 -6 26 -12 45
-13 26 -2 36 -7 36 -20 0 -10 -3 -16 -6 -14 -3 1 -11 -4 -19 -12 -12 -13 -11
-14 8 -8 12 4 21 2 21 -4 0 -6 -9 -11 -20 -11 -11 0 -20 -4 -20 -9 0 -5 10 -7
22 -3 21 5 21 5 -2 -18 -18 -18 -24 -20 -31 -9 -7 11 -9 10 -9 -3 0 -9 5 -20
11 -23 6 -4 8 -13 5 -21 -3 -7 -1 -16 4 -19 6 -4 11 0 11 7 1 7 2 19 3 27 0 8
6 16 13 18 12 4 12 -14 0 -34 -4 -6 -1 -14 5 -16 7 -3 4 -6 -7 -7 l-20 -1 20
-9 c14 -6 15 -9 5 -9 -9 -1 -21 4 -28 11 -9 9 -12 9 -12 0 0 -7 -4 -12 -9 -12
-10 0 -9 26 2 36 3 4 4 11 1 16 -3 5 -12 1 -19 -8 -11 -15 -12 -14 -10 12 2
16 3 30 4 32 1 1 1 5 2 10 0 4 8 15 16 25 13 13 14 20 5 29 -9 9 -12 6 -12
-12 0 -18 -3 -21 -9 -11 -12 19 -51 -4 -52 -32 0 -18 -2 -17 -11 8 -6 17 -19
36 -30 43 -10 7 -18 20 -18 28 0 8 -5 14 -12 14 -6 0 -8 3 -5 7 4 3 -2 13 -14
21 -11 8 -18 20 -16 26 3 7 1 19 -5 27 -8 11 -9 10 -4 -3 6 -20 -4 -24 -21 -7
-14 14 25 62 45 54 7 -2 10 0 7 5 -9 15 5 32 23 28 8 -2 17 -9 20 -17z m-98
-36 c0 -5 -5 -3 -10 5 -5 8 -10 20 -10 25 0 6 5 3 10 -5 5 -8 10 -19 10 -25z
m20 -169 c-14 -8 -28 -12 -31 -10 -4 2 -9 -3 -13 -11 -3 -8 -10 -15 -16 -15
-23 0 11 39 37 43 48 7 49 7 23 -7z m100 -40 c13 -15 20 -17 36 -8 10 6 14 12
8 12 -6 0 -11 6 -11 14 0 8 6 12 15 8 11 -4 13 -1 7 9 -5 8 -4 11 0 6 17 -15
13 -38 -11 -53 -13 -9 -24 -23 -24 -31 0 -12 -2 -12 -15 1 -8 8 -15 22 -15 30
0 9 -6 16 -13 16 -15 0 -48 36 -39 44 6 6 36 -16 62 -48z m-7 -86 c-5 -20 -15
-25 -26 -13 -8 7 11 33 23 33 5 0 6 -9 3 -20z m62 10 c3 -5 -1 -10 -9 -10 -9
0 -16 5 -16 10 0 6 4 10 9 10 6 0 13 -4 16 -10z m-121 -37 c7 -17 -22 -49 -33
-37 -3 3 3 12 13 20 11 8 14 14 8 14 -7 0 -12 5 -12 10 0 16 17 11 24 -7z
m-67 -45 c-3 -8 -6 -5 -6 6 -1 11 2 17 5 13 3 -3 4 -12 1 -19z m-25 -43 c0 -5
-5 -11 -11 -13 -6 -2 -11 4 -11 13 0 9 5 15 11 13 6 -2 11 -8 11 -13z m232
-680 c-7 -16 -24 -21 -24 -6 0 8 7 13 27 20 1 1 0 -6 -3 -14z m60 -113 c3 -9
16 -22 28 -27 13 -6 25 -19 27 -30 2 -11 14 -33 27 -48 13 -16 24 -34 24 -40
-1 -15 -59 54 -60 69 0 7 -6 14 -13 17 -17 6 -60 77 -47 77 5 0 11 -8 14 -18z
m226 -212 c0 -5 -2 -10 -4 -10 -3 0 -8 5 -11 10 -3 6 -1 10 4 10 6 0 11 -4 11
-10z m1323 -267 c-7 -2 -19 -2 -25 0 -7 3 -2 5 12 5 14 0 19 -2 13 -5z m-183
-13 c0 -5 -2 -10 -4 -10 -3 0 -8 5 -11 10 -3 6 -1 10 4 10 6 0 11 -4 11 -10z"/>
<path d="M4777 4909 c2 -47 13 -67 13 -25 0 22 4 27 16 22 22 -8 13 14 -12 30
-18 13 -19 11 -17 -27z"/>
<path d="M4811 4872 c0 -9 3 -12 5 -6 3 6 16 9 29 6 14 -2 23 -7 21 -11 -3 -4
4 -7 14 -7 18 0 18 1 2 16 -25 23 -72 24 -71 2z"/>
<path d="M4808 4853 c-16 -2 -28 -9 -28 -14 0 -10 32 -4 60 12 16 9 14 9 -32
2z"/>
<path d="M4832 4816 c1 -10 8 -17 13 -17 15 1 12 24 -3 29 -9 3 -13 -2 -10
-12z"/>
<path d="M5060 4820 c0 -11 4 -20 9 -20 5 0 7 9 4 20 -3 11 -7 20 -9 20 -2 0
-4 -9 -4 -20z"/>
<path d="M5095 4819 c-4 -5 2 -6 11 -2 12 4 15 3 10 -5 -10 -16 -1 -15 12 1 8
10 6 13 -8 14 -11 1 -22 -2 -25 -8z"/>
<path d="M3025 5571 c17 -17 1119 -33 1770 -25 330 3 605 9 612 13 6 3 -428 6
-965 6 -537 0 -1078 4 -1202 8 -149 5 -222 5 -215 -2z"/>
<path d="M7316 5571 c5 -5 27 -11 49 -14 l40 -6 -35 14 c-41 16 -69 19 -54 6z"/>
<path d="M2998 5543 c7 -3 16 -2 19 1 4 3 -2 6 -13 5 -11 0 -14 -3 -6 -6z"/>
<path d="M5399 5540 c-8 -4 -61 -15 -118 -24 -79 -13 -126 -28 -195 -60 -50
-24 -104 -47 -120 -50 -81 -19 -255 -197 -231 -236 10 -16 25 -1 18 17 -4 11
-3 14 5 9 8 -4 10 -2 6 7 -3 8 -1 18 5 22 6 3 11 0 11 -7 0 -7 11 3 24 23 56
83 201 175 341 217 86 26 239 62 265 62 10 0 21 4 24 9 8 12 -17 21 -35 11z"/>
<path d="M3115 5523 c6 -5 62 -24 125 -41 238 -66 365 -161 460 -344 27 -51
40 -60 40 -28 0 10 -10 24 -21 31 -16 8 -18 13 -9 19 10 6 1 26 -34 78 -59 89
-168 182 -214 182 -11 0 -61 20 -113 44 -52 24 -116 47 -144 50 -27 4 -61 10
-75 13 -16 4 -21 2 -15 -4z"/>
<path d="M3995 5281 c-118 -26 -148 -38 -182 -74 -36 -37 -66 -93 -60 -110 2
-7 13 7 25 29 40 78 86 103 257 139 191 40 484 0 589 -80 44 -34 46 -27 5 19
-34 39 -107 66 -229 85 -99 16 -312 12 -405 -8z"/>
<path d="M4677 5123 c-2 -5 1 -26 8 -47 l11 -40 16 40 c12 28 13 41 4 46 -14
10 -34 10 -39 1z"/>
<path d="M4642 5010 c0 -14 2 -19 5 -12 2 6 2 18 0 25 -3 6 -5 1 -5 -13z"/>
<path d="M336 4942 c-2 -4 -1 -14 5 -22 7 -12 9 -10 9 8 0 23 -5 28 -14 14z"/>
<path d="M2901 4906 c-14 -16 4 -26 50 -26 18 0 28 -4 24 -10 -3 -5 -2 -10 4
-10 18 0 22 19 9 40 -15 24 -69 28 -87 6z"/>
<path d="M3006 4903 c-4 -10 -4 -14 0 -10 10 9 45 -23 38 -34 -9 -15 -24 -10
-24 7 0 8 -5 12 -11 8 -7 -4 -6 -11 5 -22 15 -15 17 -15 34 2 12 13 14 20 5
23 -7 3 -13 9 -13 14 0 6 4 8 9 5 5 -3 11 1 15 9 6 17 -9 21 -19 5 -5 -8 -11
-8 -20 0 -9 8 -14 6 -19 -7z"/>
<path d="M3108 4913 c7 -3 16 -2 19 1 4 3 -2 6 -13 5 -11 0 -14 -3 -6 -6z"/>
<path d="M3075 4901 c-3 -5 -1 -12 5 -16 6 -4 8 -11 5 -16 -4 -5 0 -9 7 -9 9
0 14 -11 13 -30 0 -25 -3 -28 -22 -23 -13 3 -23 1 -23 -3 0 -5 14 -10 30 -11
30 -2 30 -2 30 53 0 52 -1 55 -21 49 -15 -5 -19 -4 -15 4 4 6 5 11 2 11 -3 0
-7 -4 -11 -9z"/>
<path d="M8060 4899 c0 -5 5 -7 10 -4 6 3 10 8 10 11 0 2 -4 4 -10 4 -5 0 -10
-5 -10 -11z"/>
<path d="M341 4890 c-16 -9 -6 -30 15 -30 15 0 20 25 6 34 -4 2 -14 1 -21 -4z"/>
<path d="M2902 4863 c2 -10 12 -19 23 -20 18 -2 18 -1 1 4 -13 3 -15 7 -7 13
9 5 8 9 -4 14 -12 4 -16 1 -13 -11z"/>
<path d="M8047 4855 c-4 -8 -3 -16 1 -19 13 -8 35 11 28 23 -10 15 -23 14 -29
-4z"/>
<path d="M2950 4836 c0 -8 4 -17 9 -20 7 -5 8 -41 1 -41 -1 0 -3 -15 -5 -33
-2 -19 -6 -40 -9 -47 -2 -7 -2 -16 1 -19 8 -8 33 13 33 28 0 6 -5 4 -10 -4 -8
-13 -10 -12 -10 4 0 14 6 17 25 14 13 -3 22 -2 20 3 -3 4 1 10 7 13 7 3 1 3
-14 1 -15 -2 -31 1 -34 7 -4 6 -3 9 2 6 5 -3 18 -1 29 3 18 9 18 9 -2 5 -26
-5 -32 18 -8 28 8 3 15 1 15 -3 0 -5 7 -11 15 -15 10 -4 15 1 15 14 0 12 -5
17 -13 14 -8 -3 -25 4 -38 15 -13 11 -18 20 -11 21 7 0 10 5 7 10 -9 15 -25
12 -25 -4z"/>
<path d="M3063 4835 c0 -8 6 -15 12 -15 6 0 12 7 12 15 0 8 -6 15 -12 15 -6 0
-12 -7 -12 -15z"/>
<path d="M2997 4826 c-5 -14 39 -20 47 -7 3 5 -5 11 -19 13 -13 3 -26 0 -28
-6z"/>
<path d="M330 4820 c0 -5 5 -10 10 -10 6 0 10 5 10 10 0 6 -4 10 -10 10 -5 0
-10 -4 -10 -10z"/>
<path d="M2937 4783 c-4 -3 -7 -15 -7 -25 0 -10 -4 -18 -10 -18 -5 0 -7 8 -4
18 5 16 5 16 -6 -1 -6 -9 -8 -21 -5 -27 11 -17 33 1 37 31 5 31 5 32 -5 22z"/>
<path d="M3036 4753 c-6 -14 -5 -15 5 -6 7 7 10 15 7 18 -3 3 -9 -2 -12 -12z"/>
<path d="M3040 4719 c0 -5 -4 -7 -10 -4 -5 3 -10 2 -10 -3 0 -6 7 -12 15 -16
10 -4 15 1 15 14 0 11 -2 20 -5 20 -3 0 -5 -5 -5 -11z"/>
<path d="M3615 4690 c3 -5 14 -10 23 -10 15 0 15 2 2 10 -20 13 -33 13 -25 0z"/>
<path d="M3414 4571 c4 -5 0 -11 -6 -14 -7 -3 -3 -4 8 -4 21 1 23 27 2 27 -5
0 -7 -4 -4 -9z"/>
<path d="M3286 4525 c4 -8 8 -15 10 -15 2 0 4 7 4 15 0 8 -4 15 -10 15 -5 0
-7 -7 -4 -15z"/>
<path d="M3430 4530 c0 -6 7 -10 15 -10 8 0 15 2 15 4 0 2 -7 6 -15 10 -8 3
-15 1 -15 -4z"/>
<path d="M4665 4521 c-6 -11 9 -23 19 -14 9 9 7 23 -3 23 -6 0 -12 -4 -16 -9z"/>
<path d="M3756 4392 c-20 -39 -20 -62 -1 -62 17 0 39 70 26 83 -6 6 -16 -3
-25 -21z"/>
</g>
</svg>
